<svg width="16" height="12" viewBox="0 0 16 12" fill="none" xmlns="http://www.w3.org/2000/svg">
<path d="M8 0.74999V11.25C7.99968 11.3933 7.95837 11.5335 7.88095 11.6541C7.80354 11.7746 7.69324 11.8705 7.56309 11.9305C7.43293 11.9904 7.28835 12.0118 7.1464 11.9923C7.00446 11.9727 6.87108 11.9129 6.762 11.82L3.473 8.99999H1.75C1.28587 8.99999 0.840752 8.81562 0.512563 8.48743C0.184374 8.15924 0 7.71412 0 7.24999L0 4.74999C0 3.78399 0.784 2.99999 1.75 2.99999H3.472L6.762 0.17999C6.87094 0.0866413 7.00437 0.0264977 7.14647 0.00669283C7.28856 -0.0131121 7.43335 0.00825267 7.56367 0.068253C7.69398 0.128253 7.80436 0.224371 7.88169 0.345207C7.95903 0.466042 8.00009 0.606524 8 0.74999ZM11.28 3.21999L13 4.93999L14.72 3.21999C14.8623 3.08758 15.0503 3.01548 15.2446 3.01883C15.4389 3.02219 15.6244 3.10075 15.762 3.23799C15.8992 3.37559 15.9778 3.56104 15.9812 3.75536C15.9845 3.94968 15.9124 4.13773 15.78 4.27999L14.06 5.99999L15.78 7.71999C15.8787 7.81166 15.9509 7.92826 15.9889 8.05751C16.0269 8.18676 16.0294 8.32387 15.996 8.45439C15.9626 8.58492 15.8947 8.70402 15.7993 8.79916C15.7039 8.8943 15.5846 8.96196 15.454 8.99499C15.3236 9.02841 15.1867 9.02608 15.0575 8.98824C14.9283 8.95041 14.8117 8.87847 14.72 8.77999L13 7.05999L11.28 8.77999C11.1883 8.87871 11.0717 8.95089 10.9425 8.9889C10.8132 9.02691 10.6761 9.02936 10.5456 8.99599C10.4151 8.96262 10.296 8.89466 10.2008 8.79927C10.1057 8.70388 10.038 8.5846 10.005 8.45399C9.97158 8.32361 9.97391 8.18664 10.0117 8.05748C10.0496 7.92831 10.1215 7.81173 10.22 7.71999L11.94 5.99999L10.22 4.27999C10.1213 4.18832 10.0491 4.07172 10.0111 3.94247C9.97308 3.81322 9.97063 3.67611 10.004 3.54558C10.0374 3.41506 10.1053 3.29595 10.2007 3.20081C10.2961 3.10567 10.4154 3.03802 10.546 3.00499C10.6764 2.97157 10.8133 2.9739 10.9425 3.01174C11.0717 3.04957 11.1883 3.12151 11.28 3.21999ZM4.238 4.31999C4.10192 4.43613 3.9289 4.49995 3.75 4.49999H1.75C1.6837 4.49999 1.62011 4.52633 1.57322 4.57321C1.52634 4.6201 1.5 4.68369 1.5 4.74999V7.24999C1.5 7.38799 1.612 7.49999 1.75 7.49999H3.75C3.929 7.49999 4.102 7.56399 4.238 7.67999L6.5 9.61999V2.37999L4.238 4.31999Z" fill="black"/>
</svg>
