<svg width="16" height="16" viewBox="0 0 16 16" fill="none" xmlns="http://www.w3.org/2000/svg">
<path d="M7.563 2.06904C7.69333 2.12889 7.80376 2.22486 7.88122 2.34556C7.95867 2.46626 7.99989 2.60663 8 2.75004V13.25C7.99968 13.3933 7.95837 13.5335 7.88095 13.6541C7.80354 13.7747 7.69324 13.8706 7.56309 13.9305C7.43293 13.9904 7.28835 14.0119 7.1464 13.9923C7.00446 13.9727 6.87108 13.913 6.762 13.82L3.472 11H1.75C1.28587 11 0.840752 10.8157 0.512563 10.4875C0.184374 10.1593 0 9.71417 0 9.25004L0 6.75004C0 5.78404 0.784 5.00004 1.75 5.00004H3.473L6.762 2.18004C6.87096 2.08695 7.0043 2.02702 7.14626 2.00734C7.28821 1.98767 7.43283 2.00908 7.563 2.06904ZM6.5 4.38004L4.238 6.31904C4.10225 6.43585 3.92909 6.50008 3.75 6.50004H1.75C1.6837 6.50004 1.62011 6.52638 1.57322 6.57327C1.52634 6.62015 1.5 6.68374 1.5 6.75004V9.25004C1.5 9.38804 1.612 9.50004 1.75 9.50004H3.75C3.929 9.50004 4.102 9.56404 4.238 9.68004L6.5 11.62V4.38004ZM12.596 2.34204C12.7366 2.20159 12.9272 2.1227 13.126 2.1227C13.3248 2.1227 13.5154 2.20159 13.656 2.34204C14.3989 3.08492 14.9882 3.96685 15.3903 4.93748C15.7924 5.90811 15.9993 6.94843 15.9993 7.99904C15.9993 9.04965 15.7924 10.09 15.3903 11.0606C14.9882 12.0312 14.3989 12.9132 13.656 13.656C13.5137 13.7885 13.3257 13.8606 13.1314 13.8572C12.9371 13.8538 12.7516 13.7753 12.614 13.638C12.4768 13.5004 12.3982 13.315 12.3948 13.1207C12.3915 12.9264 12.4636 12.7383 12.596 12.596C13.1997 11.9925 13.6785 11.2759 14.0052 10.4872C14.332 9.69851 14.5001 8.85321 14.5001 7.99954C14.5001 7.14588 14.332 6.30057 14.0052 5.5119C13.6785 4.72323 13.1997 4.00664 12.596 3.40304C12.4555 3.26242 12.3767 3.07179 12.3767 2.87304C12.3767 2.67429 12.4555 2.48267 12.596 2.34204ZM11.536 4.46304L11.535 4.46404C12.4724 5.40168 12.9989 6.67322 12.9989 7.99904C12.9989 9.32486 12.4724 10.5964 11.535 11.534C11.4433 11.6328 11.3267 11.7049 11.1975 11.743C11.0682 11.781 10.9311 11.7834 10.8006 11.75C10.6701 11.7167 10.551 11.6487 10.4558 11.5533C10.3607 11.4579 10.293 11.3387 10.26 11.208C10.2266 11.0777 10.2289 10.9407 10.2667 10.8115C10.3046 10.6824 10.3765 10.5658 10.475 10.474C10.8 10.149 11.0579 9.76318 11.2338 9.33852C11.4097 8.91386 11.5003 8.4587 11.5003 7.99904C11.5003 7.53939 11.4097 7.08423 11.2338 6.65957C11.0579 6.23491 10.8 5.84905 10.475 5.52404C10.3343 5.38335 10.2553 5.19252 10.2553 4.99354C10.2553 4.79457 10.3343 4.60374 10.475 4.46304C10.6157 4.32235 10.8065 4.2433 11.0055 4.2433C11.2045 4.2433 11.3953 4.32235 11.536 4.46304Z" fill="black"/>
</svg>
